<svg xmlns="http://www.w3.org/2000/svg"  viewBox="0 0 24 24" width="24px" height="24px"><path d="M4,19V5c0-1.657,1.343-3,3-3h7l6,6v11c0,1.657-1.343,3-3,3H7C5.343,22,4,20.657,4,19z" opacity=".35"/><path d="M14,6V2l6,6h-4C14.895,8,14,7.105,14,6z"/><path d="M8.431,13.153v4.182C8.431,17.702,8.134,18,7.766,18h0c-0.367,0-0.665-0.298-0.665-0.665v-4.182H6.576	C6.258,13.153,6,12.895,6,12.576v0C6,12.258,6.258,12,6.576,12h2.381c0.318,0,0.576,0.258,0.576,0.576v0	c0,0.318-0.258,0.576-0.576,0.576H8.431z"/><path d="M12.641,17.613l-0.669-1.596l-0.66,1.593C11.214,17.846,10.984,18,10.729,18h0c-0.462,0-0.768-0.481-0.572-0.899	l1.052-2.245l-0.938-1.977C10.077,12.471,10.375,12,10.827,12h0.027c0.251,0,0.476,0.152,0.57,0.385l0.582,1.438l0.589-1.44	C12.69,12.151,12.915,12,13.165,12h0c0.453,0,0.751,0.473,0.555,0.881l-0.942,1.966l1.065,2.251C14.04,17.517,13.735,18,13.271,18	h-0.048C12.969,18,12.739,17.847,12.641,17.613z"/><path d="M16.898,13.153v4.182c0,0.367-0.298,0.665-0.665,0.665h0c-0.367,0-0.665-0.298-0.665-0.665v-4.182h-0.525	c-0.318,0-0.576-0.258-0.576-0.576v0c0-0.318,0.258-0.576,0.576-0.576h2.381C17.742,12,18,12.258,18,12.576v0	c0,0.318-0.258,0.576-0.576,0.576H16.898z"/></svg>