<svg xmlns="http://www.w3.org/2000/svg"  viewBox="0 0 24 24" width="24px" height="24px"><circle cx="16" cy="20" r="1"/><path d="M19,11v9c0-1.66-1.34-3-3-3H6c-0.83,0-1.58,0.34-2.12,0.88C3.34,18.42,3,19.17,3,20V9c0-1.66,1.34-3,3-3h2.77 C8.29,6.53,8,7.23,8,8c0,1.66,1.34,3,3,3H19z"/><path d="M19.5,4c-0.213,0-0.419,0.026-0.622,0.063C18.455,2.308,16.885,1,15,1c-2.209,0-4,1.791-4,4C9.343,5,8,6.343,8,8 s1.343,3,3,3h8.5c1.933,0,3.5-1.567,3.5-3.5S21.433,4,19.5,4z" opacity=".35"/><path d="M16,23H6c-1.657,0-3-1.343-3-3v0c0-1.657,1.343-3,3-3h10c1.657,0,3,1.343,3,3v0 C19,21.657,17.657,23,16,23z" opacity=".35"/></svg>